HIERARCHY
ROOT RootJoint
{
    OFFSET   0.000000   0.000000   0.000000
    CHANNELS 6 Xposition Yposition Zposition Xrotation Yrotation Zrotation
    JOINT pelvis_lowerback
    {
        OFFSET   0.000000   0.093605   0.000000
        CHANNELS 3 Xrotation Yrotation Zrotation
        JOINT lowerback_torso
        {
            OFFSET   0.000000   0.100000   0.000000
            CHANNELS 3 Xrotation Yrotation Zrotation
            JOINT torso_head
            {
                OFFSET   0.000000   0.282350   0.000000
                CHANNELS 3 Xrotation Yrotation Zrotation
                End Site
                {
                    OFFSET   0.000000   0.192650   0.000000
                }
            }
            JOINT rTorso_Clavicle
            {
                OFFSET  -0.001000   0.157500   0.000000
                CHANNELS 3 Xrotation Yrotation Zrotation
                JOINT rShoulder
                {
                    OFFSET  -0.117647   0.000000   0.000000
                    CHANNELS 3 Xrotation Yrotation Zrotation
                    JOINT rElbow
                    {
                        OFFSET  -0.245000   0.000000   0.000000
                        CHANNELS 3 Xrotation Yrotation Zrotation
                        JOINT rWrist
                        {
                            OFFSET  -0.240000   0.000000   0.000000
                            CHANNELS 3 Xrotation Yrotation Zrotation
                            End Site
                            {
                                OFFSET  -0.116353  -0.002500   0.000000
                            }
                        }
                    }
                }
            }
            JOINT lTorso_Clavicle
            {
                OFFSET   0.001000   0.157500   0.000000
                CHANNELS 3 Xrotation Yrotation Zrotation
                JOINT lShoulder
                {
                    OFFSET   0.117647   0.000000   0.000000
                    CHANNELS 3 Xrotation Yrotation Zrotation
                    JOINT lElbow
                    {
                        OFFSET   0.245000   0.000000   0.000000
                        CHANNELS 3 Xrotation Yrotation Zrotation
                        JOINT lWrist
                        {
                            OFFSET   0.240000   0.000000   0.000000
                            CHANNELS 3 Xrotation Yrotation Zrotation
                            End Site
                            {
                                OFFSET   0.116353  -0.002500   0.000000
                            }
                        }
                    }
                }
            }
        }
    }
    JOINT rHip
    {
        OFFSET  -0.100000  -0.051395   0.000000
        CHANNELS 3 Xrotation Yrotation Zrotation
        JOINT rKnee
        {
            OFFSET   0.000000  -0.410000   0.000000
            CHANNELS 3 Xrotation Yrotation Zrotation
            JOINT rAnkle
            {
                OFFSET   0.000000  -0.390000   0.000000
                CHANNELS 3 Xrotation Yrotation Zrotation
                JOINT rToeJoint
                {
                    OFFSET   0.000000  -0.050000   0.130000
                    CHANNELS 3 Xrotation Yrotation Zrotation
                    End Site
                    {
                        OFFSET  -0.010000   0.002000   0.060000
                    }
                }
            }
        }
    }
    JOINT lHip
    {
        OFFSET   0.100000  -0.051395   0.000000
        CHANNELS 3 Xrotation Yrotation Zrotation
        JOINT lKnee
        {
            OFFSET   0.000000  -0.410000   0.000000
            CHANNELS 3 Xrotation Yrotation Zrotation
            JOINT lAnkle
            {
                OFFSET   0.000000  -0.390000   0.000000
                CHANNELS 3 Xrotation Yrotation Zrotation
                JOINT lToeJoint
                {
                    OFFSET   0.000000  -0.050000   0.130000
                    CHANNELS 3 Xrotation Yrotation Zrotation
                    End Site
                    {
                        OFFSET   0.010000   0.002000   0.060000
                    }
                }
            }
        }
    }
}
MOTION
Frames: 5
Frame Time:   0.016667
 -7.325557   0.837551   8.326975   6.621385 -61.517020  10.217142   2.751707   1.425449  -1.910291   2.814508  11.046284  -4.103592  13.924567  18.125607  -9.881944   7.308185  10.428424  12.857182   2.126540  36.152075  43.833208  -0.003006  43.427012   0.000174  17.159650   1.156423  -7.515396   6.051353   0.353157 -17.682782   9.019074 -20.376160 -47.247013  -0.085381 -32.815773  -0.028224   7.182893   0.819198   0.065395 -23.130587 -17.620977 -13.480145  76.897767   0.013162   0.007386  -8.836807  -7.982425  -1.337188   8.529903  -0.000712   0.001764 -27.734949   7.086368 -11.646521  47.458237   0.001555  -0.017875 -21.744016   0.027396   8.613353  -0.868364  -0.000367   0.000122
 -7.341818   0.844134   8.330735   5.883774 -60.091758   9.656338   2.989660   1.526175  -1.924123   2.817440  10.151380  -3.547764  13.652704  18.861863 -10.509393   7.000914   9.960913  13.087396   1.915857  34.881990  43.703603  -0.001410  43.085067  -0.001297  16.666853   1.278067  -8.238139   5.911992  -0.093129 -17.180083   7.704461 -21.467697 -46.045925  -0.095796 -37.159638  -0.023678   7.503767   1.144017   0.715465 -26.648978 -16.731946 -14.978455  75.682234   0.005975   0.003341 -10.220283  -9.424003  -3.417911   7.508329  -0.005116   0.005282 -25.310202   5.985115 -11.842794  45.271350   0.002052  -0.019029 -22.093450  -1.199164   8.195394   1.550996  -0.000605  -0.001573
 -7.358080   0.850718   8.334494   5.203412 -58.663223   9.153962   3.227650   1.626843  -1.938374   2.829160   9.256546  -2.993371  13.388192  19.600896 -11.135952   6.695979   9.492198  13.314743   1.704880  33.612301  43.570332   0.000166  42.743123  -0.002747  16.175606   1.405912  -8.959847   5.776546  -0.540620 -16.678449   6.404626 -22.584545 -44.862874  -0.106418 -41.503504  -0.019894   7.820976   1.472450   1.363789 -30.125406 -15.757245 -16.410201  74.466700  -0.001124  -0.000855 -11.662231 -10.814436  -5.542642   6.486755  -0.009582   0.008720 -22.893696   4.876610 -11.991775  43.084464   0.002593  -0.020164 -22.452066  -2.423119   7.769674   3.970356  -0.000915  -0.003256
 -7.374341   0.857301   8.338254   4.572803 -57.231856   8.702591   3.465676   1.727451  -1.953044   2.849602   8.361865  -2.440134  13.131070  20.342614 -11.761814   6.393337   9.022301  13.539257   1.493420  32.343027  43.433431   0.001721  42.401178  -0.004177  15.685979   1.539928  -9.680473   5.645010  -0.989278 -16.177822   5.119253 -23.725849 -43.697786  -0.117428 -45.847370  -0.016981   8.134499   1.804446   2.010391 -33.558868 -14.701478 -17.771350  73.251166  -0.008133  -0.005201 -13.162887 -12.150704  -7.712768   5.465182  -0.014109   0.012079 -20.483623   3.762843 -12.093570  40.897577   0.003176  -0.021277 -22.820189  -3.644350   7.335805   6.389716  -0.001295  -0.004925
 -7.392314   0.857558   8.341832   3.343619 -55.346155   7.630167   4.002503   1.799707  -1.940942   2.577174   7.344970  -2.224604  13.301885  20.396468 -11.963723   6.270847   8.567639  13.399390   2.514127  30.304759  43.049945  -0.002334  44.583763  -0.000808  15.944171   1.315575  -9.912541   5.713106  -1.823622 -15.448480   2.736804 -24.654986 -43.603891  -0.123867 -50.472021  -0.033380   8.759754   2.032862   1.904698 -35.037864 -13.540730 -18.994386  69.379820  -0.024741  -0.015487 -13.420850 -12.067633  -8.470414   5.207891  -0.011219   0.008865 -18.611738   2.489901 -11.471778  40.796050   0.002510  -0.016102 -24.277828  -4.526108   6.268890   6.999568  -0.001189  -0.002474
